<svg width="1427" height="825" viewBox="0 0 1427 825" fill="none" xmlns="http://www.w3.org/2000/svg">
<mask id="mask0_309_105" style="mask-type:alpha" maskUnits="userSpaceOnUse" x="0" y="0" width="1427" height="825">
<rect width="1427" height="825" fill="#D9D9D9"/>
</mask>
<g mask="url(#mask0_309_105)">
<mask id="mask1_309_105" style="mask-type:alpha" maskUnits="userSpaceOnUse" x="-66" y="281" width="1567" height="1001">
<rect width="1567" height="1001" transform="matrix(1 0 0 -1 -66 1282)" fill="#D9D9D9"/>
</mask>
<g mask="url(#mask1_309_105)">
<path fill-rule="evenodd" clip-rule="evenodd" d="M1369.68 462.688C1369.68 462.688 1148.76 1017.51 951.97 750.745C755.177 483.969 660.314 573.209 570.054 625.441C479.795 677.672 351.329 666.501 269.452 539.717C159.913 370.08 98.4583 562.643 15.0509 354.511C-68.3569 146.371 241.5 -257.402 241.5 -257.402C241.5 -257.402 520 -663.264 583.122 -663.264C880 -828.847 1543.46 -98.3922 1543.46 -98.3922L1369.68 462.688Z" fill="black"/>
</g>
<mask id="mask2_309_105" style="mask-type:alpha" maskUnits="userSpaceOnUse" x="-66" y="-234" width="1567" height="515">
<rect x="-66" y="-234" width="1567" height="515" fill="#D9D9D9"/>
</mask>
<g mask="url(#mask2_309_105)">
<path fill-rule="evenodd" clip-rule="evenodd" d="M1369.68 187.524C1369.68 187.524 1148.76 -97.9253 951.97 39.323C755.177 176.575 660.314 130.663 570.054 103.79C479.795 76.9178 351.329 82.6655 269.452 147.894C159.913 235.169 98.4583 136.099 15.0509 243.18C-68.3569 350.265 241.5 558 241.5 558C241.5 558 520 766.81 583.122 766.81C880 852 1543.46 476.192 1543.46 476.192L1369.68 187.524Z" fill="black"/>
</g>
<path d="M1053.62 205C1053.62 205 993.214 219.254 893.555 289.521C798.761 356.363 716.159 322.33 692 313.129" stroke="#EAEAE6" stroke-width="5" stroke-miterlimit="10"/>
<path d="M486.82 406.292C486.82 406.292 578.746 374.671 595.24 259.506" stroke="#EAEAE6" stroke-width="5" stroke-miterlimit="10"/>
<mask id="mask3_309_105" style="mask-type:alpha" maskUnits="userSpaceOnUse" x="0" y="2" width="1544" height="778">
<path fill-rule="evenodd" clip-rule="evenodd" d="M1369.68 187.524C1369.68 187.524 1148.76 -97.9253 951.97 39.323C755.177 176.575 660.314 130.663 570.054 103.79C479.795 76.9178 351.329 82.6655 269.452 147.894C159.913 235.169 98.4583 136.099 15.0509 243.18C-68.3569 350.265 241.5 558 241.5 558C241.5 558 520 766.81 583.122 766.81C880 852 1543.46 476.192 1543.46 476.192L1369.68 187.524Z" fill="black"/>
</mask>
<g mask="url(#mask3_309_105)">
<mask id="mask4_309_105" style="mask-type:alpha" maskUnits="userSpaceOnUse" x="0" y="-688" width="1544" height="1512">
<path fill-rule="evenodd" clip-rule="evenodd" d="M1369.68 462.688C1369.68 462.688 1148.76 1017.51 951.97 750.745C755.177 483.969 660.314 573.209 570.054 625.441C479.795 677.672 351.329 666.501 269.452 539.717C159.913 370.08 98.4583 562.643 15.0509 354.511C-68.3569 146.371 241.5 -257.402 241.5 -257.402C241.5 -257.402 520 -663.264 583.122 -663.264C880 -828.847 1543.46 -98.3922 1543.46 -98.3922L1369.68 462.688Z" fill="black"/>
</mask>
<g mask="url(#mask4_309_105)">
<path d="M218.681 506.173C218.681 506.173 287.111 432.688 438.946 370.163C583.373 310.697 632.366 142.95 647.319 94.8268" stroke="#EAEAE6" stroke-width="5" stroke-miterlimit="10"/>
</g>
</g>
</g>
</svg>
