<svg width="1528" height="1218" viewBox="0 0 1528 1218" fill="none" xmlns="http://www.w3.org/2000/svg">
<mask id="mask0_309_55" style="mask-type:alpha" maskUnits="userSpaceOnUse" x="0" y="0" width="1528" height="1218">
<path fill-rule="evenodd" clip-rule="evenodd" d="M156.881 961.205C156.881 961.205 361.007 1337.75 565.371 1178.74C769.736 1019.73 861.799 1084.61 950.363 1125.12C1038.93 1165.62 1167.51 1167.7 1253.01 1091.28C1367.39 989.039 1423.04 1118.62 1512.47 989.46C1601.9 860.298 1275.55 321.642 1275.55 321.642C1275.55 321.642 1135.91 -14.322 1107.82 0.474803C896.97 111.543 0 584.023 0 584.023L156.881 961.205Z" fill="black"/>
</mask>
<g mask="url(#mask0_309_55)">
<path fill-rule="evenodd" clip-rule="evenodd" d="M156.881 961.205C156.881 961.205 361.007 1337.75 565.371 1178.74C769.736 1019.73 861.799 1084.61 950.363 1125.12C1038.93 1165.62 1167.51 1167.7 1253.01 1091.28C1367.39 989.039 1423.04 1118.62 1512.47 989.46C1601.9 860.298 1275.55 321.642 1275.55 321.642C1275.55 321.642 1135.91 -14.322 1107.82 0.474803C896.97 111.543 0 584.023 0 584.023L156.881 961.205Z" fill="black"/>
<path d="M1582.72 1030.89C1582.72 1030.89 1529.35 992.356 1417.4 964.428C1310.91 937.863 1265.28 844.341 1251.56 817.561" stroke="#EAEAE6" stroke-width="5" stroke-miterlimit="10"/>
<path d="M1441.37 1007.22C1441.37 1007.22 1344.23 1010.89 1287.3 909.424" stroke="#EAEAE6" stroke-width="5" stroke-miterlimit="10"/>
</g>
<path d="M860.142 1118.78C860.142 1118.78 829.642 1102 793 1108.49" stroke="black" stroke-width="5" stroke-miterlimit="10"/>
</svg>
